<svg xmlns="http://www.w3.org/2000/svg" xmlns:xlink="http://www.w3.org/1999/xlink" version="1.1" x="0px" y="0px" width="100px" height="100px" viewBox="0 0 100 100" enable-background="new 0 0 100 100" xml:space="preserve">
<g id="Captions" display="none">
</g>
<g id="Your_Icon">
	<path d="M4.818,64.693c-0.523,0.063-1.017-0.465-1.105-1.184l-2.7-21.985c-0.087-0.719,0.264-1.351,0.788-1.416l3.953-0.486   c0.522-0.063,1.02,0.465,1.108,1.183l2.7,21.985c0.087,0.719-0.266,1.353-0.789,1.416L4.818,64.693z"/>
	<path d="M26.515,73.277c-3.469,0.427-6.628-2.042-7.053-5.51c-0.016-0.123-0.024-0.246-0.031-0.367l-3.354-0.53   c-0.004,0.431,0.015,0.866,0.07,1.305c0.649,5.301,5.475,9.071,10.775,8.419c3.898-0.479,6.964-3.214,8.059-6.736l-3.353-0.531   C30.801,71.409,28.894,72.985,26.515,73.277z"/>
	<path d="M76.022,72.515l-7.024-57.22c-0.058-0.457-0.323-0.859-0.722-1.091c-0.28-0.16-0.599-0.223-0.91-0.185   c-0.135,0.015-0.267,0.051-0.395,0.104L9.874,38.331c-0.603,0.256-0.961,0.878-0.881,1.526l2.865,23.34   c0.079,0.649,0.577,1.167,1.225,1.27l61.259,9.675c0.136,0.021,0.271,0.021,0.406,0.006c0.312-0.039,0.607-0.176,0.839-0.401   C75.917,73.426,76.079,72.971,76.022,72.515z M57.66,25.355L18.552,41.158c-0.697,0.28-1.347,0.301-1.448,0.046l-0.222-0.547   c-0.103-0.255,0.378-0.69,1.077-0.972l39.107-15.801c0.697-0.281,1.346-0.304,1.45-0.046l0.22,0.547   C58.84,24.638,58.356,25.073,57.66,25.355z"/>
	<path d="M78.333,45.577c-0.605,0-1.198-0.202-1.681-0.58c-0.57-0.446-0.941-1.099-1.029-1.819l-0.335-2.729   c-0.183-1.498,0.881-2.86,2.378-3.042l17.739-2.179c0.112-0.014,0.223-0.02,0.333-0.02c0.607,0,1.199,0.202,1.682,0.579   c0.57,0.446,0.941,1.1,1.029,1.819l0.335,2.729c0.183,1.496-0.882,2.859-2.377,3.042l-17.741,2.178   C78.555,45.57,78.444,45.577,78.333,45.577z"/>
	<path d="M88.039,58.065c-0.11,0-0.221-0.008-0.333-0.021l-10.088-1.238c-0.719-0.088-1.374-0.459-1.819-1.029   c-0.444-0.572-0.646-1.296-0.559-2.015l0.336-2.729c0.171-1.383,1.349-2.397,2.707-2.397c0.111,0,0.224,0.006,0.338,0.021   l10.087,1.237c1.495,0.184,2.56,1.546,2.377,3.042l-0.335,2.729c-0.088,0.72-0.459,1.373-1.029,1.82   C89.238,57.864,88.646,58.065,88.039,58.065z"/>
	<path d="M75.47,34.911c-1.104,0-2.14-0.674-2.554-1.762l-0.981-2.585c-0.261-0.689-0.232-1.454,0.078-2.123   c0.312-0.667,0.88-1.181,1.574-1.424l9.943-3.477c0.299-0.104,0.603-0.153,0.901-0.153c1.104,0,2.141,0.675,2.553,1.764   l0.979,2.584c0.261,0.689,0.232,1.453-0.079,2.121c-0.311,0.667-0.878,1.181-1.573,1.423l-9.94,3.477   C76.073,34.861,75.768,34.911,75.47,34.911z"/>
</g>
</svg>