<svg xmlns="http://www.w3.org/2000/svg" xmlns:xlink="http://www.w3.org/1999/xlink" version="1.1" id="Layer_1" x="0px" y="0px" width="100px" height="100px" viewBox="0 0 100 100" enable-background="new 0 0 100 100" xml:space="preserve">
<g>
	<polygon fill="#000000" points="54.079,34.286 46.144,34.286 46.144,31.243 21.692,31.243 21.692,34.286 13.758,34.286    13.758,38.365 54.079,38.365  "/>
	<path fill="#000000" d="M71.872,77.169c-1.07,0.594-2.295,0.918-3.555,0.918c-1.261,0-2.483-0.324-3.555-0.918   c-1.07,0.594-2.294,0.918-3.554,0.918s-2.484-0.324-3.555-0.918c-1.069,0.594-2.294,0.918-3.553,0.918   c-1.262,0-2.485-0.324-3.555-0.918c-1.071,0.594-2.294,0.918-3.553,0.918c-1.261,0-2.485-0.324-3.556-0.918   c-1.07,0.594-2.294,0.918-3.554,0.918s-2.483-0.324-3.554-0.918c-1.07,0.594-2.294,0.918-3.555,0.918v5.138v4.731v0.521v7.63v4.06   h5.333V82.413H48.77v17.753h33.765V78.087c-1.259,0-2.483-0.324-3.555-0.918c-1.069,0.594-2.294,0.918-3.554,0.918   C74.165,78.087,72.94,77.763,71.872,77.169z M77.203,93.755H54.102V82.413h23.102V93.755z"/>
	<path fill="#000000" d="M49.975,65.646h-7.66h-4.566h-4.975l-4.739,6.411h0c0,0.008,0.002,0.018,0.002,0.025   c0.001,0.157,0.017,0.312,0.041,0.466c0.007,0.044,0.016,0.09,0.024,0.135c0.026,0.13,0.059,0.259,0.1,0.383   c0.009,0.031,0.018,0.063,0.029,0.094c0.057,0.161,0.124,0.319,0.205,0.472c0.002,0.005,0.006,0.011,0.008,0.015   c0.081,0.15,0.173,0.296,0.275,0.435c0.012,0.016,0.022,0.033,0.034,0.047c0.447,0.595,1.086,1.093,1.874,1.43   c0.008,0.004,0.013,0.01,0.021,0.013c0.64,0.268,1.36,0.421,2.125,0.421c1.418,0,2.687-0.52,3.555-1.34   c0.868,0.82,2.137,1.34,3.554,1.34c1.418,0,2.687-0.52,3.554-1.34c0.868,0.82,2.137,1.34,3.556,1.34c1.417,0,2.684-0.52,3.553-1.34   c0.869,0.82,2.136,1.34,3.555,1.34c1.417,0,2.684-0.52,3.553-1.34c0.869,0.82,2.137,1.34,3.555,1.34c1.419,0,2.687-0.52,3.554-1.34   c0.867,0.82,2.135,1.34,3.555,1.34c1.419,0,2.685-0.52,3.555-1.34c0.868,0.82,2.136,1.34,3.554,1.34c1.419,0,2.687-0.52,3.554-1.34   c0.869,0.82,2.137,1.34,3.555,1.34c2.615,0,4.731-1.76,4.738-3.934h0.001l-4.739-6.411H54.079H49.975z"/>
	<rect x="13.758" y="88.943" fill="#000000" width="17.832" height="7.163"/>
	<path fill="#000000" d="M30.087,76.436c-0.467-0.199-0.896-0.45-1.281-0.739c-0.018-0.014-0.035-0.026-0.052-0.04   c-0.371-0.286-0.696-0.61-0.969-0.965c-0.023-0.028-0.044-0.061-0.066-0.09c-0.112-0.153-0.215-0.312-0.306-0.474   c-0.018-0.03-0.035-0.058-0.051-0.089c-0.1-0.187-0.186-0.38-0.257-0.575c-0.013-0.038-0.022-0.074-0.035-0.112   c-0.054-0.161-0.098-0.327-0.131-0.496c-0.011-0.057-0.022-0.11-0.031-0.166c-0.033-0.206-0.055-0.414-0.057-0.63   c0-0.182,0.061-0.361,0.177-0.518l3.06-4.142v-3.713h7.662v0.973h4.566v-0.973h7.66v0.973h4.104V39.817H13.758V87.49H31.59v-4.266   h-1.502V76.436z M42.315,42.735h7.66v7.888h-7.66V42.735z M42.315,53.045h7.66v7.89h-7.66V53.045z M30.087,42.735h7.662v7.888   h-7.662V42.735z M30.087,53.045h7.662v7.89h-7.662V53.045z M25.743,83.225h-7.663v-7.889h7.663V83.225z M25.743,71.577h-7.663   v-7.89h7.663V71.577z M25.743,60.935h-7.663v-7.89h7.663V60.935z M25.743,50.624h-7.663v-7.888h7.663V50.624z"/>
	<path fill="#000000" d="M55.265,34.286v4.545c0,0.09-0.021,0.176-0.048,0.259c0.026,0.083,0.048,0.17,0.048,0.26v25.31h18.603   V29.763h-1.156v-9.205h-1.608v-4.766h-0.81v-2.359h-1.905v-1.785h-2.191V10.86h-0.799l-0.406-2.444l-0.344-0.244l-0.286-1.743   h-0.345L62.51,0.088h-0.967l-1.505,6.341h-0.346l-0.299,1.743l-0.346,0.244l-0.406,2.444h-0.796v0.789h-2.193v1.785h-1.905v2.359   h-0.798v4.766h-1.621v9.205h-1.156V33.3h3.907C54.732,33.3,55.265,33.741,55.265,34.286z"/>
</g>
</svg>