<svg xmlns="http://www.w3.org/2000/svg" xmlns:xlink="http://www.w3.org/1999/xlink" version="1.1" x="0px" y="0px" width="100px" height="100px" viewBox="0 0 100 100" enable-background="new 0 0 100 100" xml:space="preserve">
<g id="Captions">
</g>
<g id="Your_Icon">
	<g>
		<g>
			<rect x="42.208" y="34.031" width="29.081" height="12.75"/>
			<path d="M76.152,27.658H29.778c-0.828,0-1.5,0.672-1.5,1.5v9.555c0.908-0.492,1.923-0.813,3-0.917v-7.138h43.375v35.184H41.008v3     h35.144c0.83,0,1.5-0.671,1.5-1.5V29.158C77.652,28.33,76.982,27.658,76.152,27.658z"/>
		</g>
		<g>
			<circle cx="32.055" cy="45.701" r="5.945"/>
			<path d="M56.695,54.086h-0.494l2.602-4.042c0.299-0.464,0.166-1.083-0.299-1.382c-0.463-0.299-1.084-0.166-1.383,0.299     l-3.299,5.125H24.574c-1.23,0-2.227,0.997-2.227,2.227v16.029h16.661V59.139h17.687c1.395,0,2.525-1.131,2.525-2.527     C59.221,55.217,58.09,54.086,56.695,54.086z"/>
		</g>
	</g>
</g>
<g id="Capa_3" display="none">
	<g display="inline">
		<circle cx="50" cy="23.24" r="6.084"/>
		<path d="M58.323,30.396H41.308c-5.021,0-5.353,4.733-5.353,4.733v12.026h9.026V59.87H55.26V47.156h8.785V35.13    C64.045,35.13,63.345,30.396,58.323,30.396z"/>
	</g>
	<g display="inline">
		<path d="M35.943,49.555h7.319v12.774h13.475V49.555h7.32v33.289h-7.32V68.484H43.263v14.359h-7.319V49.555z"/>
	</g>
</g>
</svg>